<svg xmlns="http://www.w3.org/2000/svg" xmlns:xlink="http://www.w3.org/1999/xlink" width="2.95in" height="1.53in" viewBox="0 0 212.4 110.38"><defs><radialGradient id="a" cx="189.58" cy="24.31" r="18" gradientUnits="userSpaceOnUse"><stop offset="0" stop-color="#ffdedd"/><stop offset="0.03" stop-color="#fcd5d7"/><stop offset="0.23" stop-color="#e997a8"/><stop offset="0.42" stop-color="#d86382"/><stop offset="0.6" stop-color="#cc3b64"/><stop offset="0.76" stop-color="#c31e4f"/><stop offset="0.9" stop-color="#bd0c42"/><stop offset="1" stop-color="#bb063d"/></radialGradient></defs><title>Artboard 1</title><path d="M6.55,102.69a1.6,1.6,0,0,0,1.19-.32,1.44,1.44,0,0,0,.28-1v-7.6A1,1,0,0,0,7.7,93a2.46,2.46,0,0,0-1.11-.27v-.4h4l3.15,7.4h.14L17,92.29h4v.4A2.11,2.11,0,0,0,20,93c-.2.16-.3.55-.3,1.16v7.08a1.62,1.62,0,0,0,.3,1.16,1.8,1.8,0,0,0,1.11.3v.41H15.76v-.41a2.14,2.14,0,0,0,1.07-.24c.24-.14.36-.45.36-.94V93.69h-.12l-3.92,9.41h-.43l-4-9.22H8.69v7.23A1.89,1.89,0,0,0,9,102.28a1.75,1.75,0,0,0,1.32.41v.41H6.55Z"/><path d="M21.18,103.1v-.41a2.18,2.18,0,0,0,1-.19,1,1,0,0,0,.44-.93V93.82a1,1,0,0,0-.46-.94,2.43,2.43,0,0,0-1-.19v-.4H30.4v3.22H30a3.49,3.49,0,0,0-1-2.12,4.53,4.53,0,0,0-2.66-.57,1.83,1.83,0,0,0-.94.16.73.73,0,0,0-.2.6v3.71a2.5,2.5,0,0,0,1.85-.5,3.84,3.84,0,0,0,.75-1.87h.4v5.4h-.4a3.46,3.46,0,0,0-.7-1.92,2.58,2.58,0,0,0-1.9-.56v3.87a.83.83,0,0,0,.26.7,2.17,2.17,0,0,0,1.08.18A4.79,4.79,0,0,0,29,102a5,5,0,0,0,1.72-2.23h.44l-.65,3.33Z"/><path d="M39,92.45a7.63,7.63,0,0,0,1.14.37.59.59,0,0,0,.49-.23,1.29,1.29,0,0,0,.23-.49h.44v3.74h-.4a9,9,0,0,0-1.18-1.92,3.31,3.31,0,0,0-2.55-1.3A2.34,2.34,0,0,0,34.9,94a8.57,8.57,0,0,0-.67,3.72,8.65,8.65,0,0,0,.39,2.83,2.78,2.78,0,0,0,2.76,2.08,4.13,4.13,0,0,0,2.29-.69,8.68,8.68,0,0,0,1.44-1.27l.47.39a9.2,9.2,0,0,1-1.64,1.51,5,5,0,0,1-2.82.84,5.77,5.77,0,0,1-4-1.41,5.26,5.26,0,0,1-1.78-4.19,5.57,5.57,0,0,1,1.7-4.22A5.44,5.44,0,0,1,37,92.08,6.14,6.14,0,0,1,39,92.45Z"/><path d="M41.78,102.69a2.15,2.15,0,0,0,.9-.18,1,1,0,0,0,.45-.94V93.82a1,1,0,0,0-.4-.92,2.85,2.85,0,0,0-.95-.21v-.4h5.41v.4a2.64,2.64,0,0,0-1,.19,1,1,0,0,0-.45.94v3.32h3.81V93.82a1,1,0,0,0-.43-.93,2.48,2.48,0,0,0-1-.2v-.4H53.6v.4a2.57,2.57,0,0,0-1,.2,1,1,0,0,0-.43.93v7.75a1,1,0,0,0,.47,1,2.17,2.17,0,0,0,.92.17v.41H48.15v-.41a2.18,2.18,0,0,0,1-.19,1,1,0,0,0,.44-.93V97.88H45.76v3.69a1,1,0,0,0,.49,1,2.41,2.41,0,0,0,.94.16v.41H41.78Z"/><path d="M53.78,92.29h9.63l0,3.22H63a3,3,0,0,0-1.3-2.34,3.91,3.91,0,0,0-1.8-.37v8.43a1.64,1.64,0,0,0,.31,1.17,2,2,0,0,0,1.29.29v.41H55.76v-.41A1.93,1.93,0,0,0,57,102.4a1.63,1.63,0,0,0,.31-1.17V92.8a4,4,0,0,0-1.8.37,2.73,2.73,0,0,0-1.3,2.34h-.46Z"/><path d="M63.65,102.69a1.87,1.87,0,0,0,1.11-.3,1.6,1.6,0,0,0,.3-1.16V94.15a1.53,1.53,0,0,0-.35-1.2,2.22,2.22,0,0,0-1.06-.26v-.4H68.8a8.48,8.48,0,0,1,2.6.33,2.48,2.48,0,0,1,1.92,2.45,2.42,2.42,0,0,1-1,2.05,3.77,3.77,0,0,1-1.63.72l3.4,4.55a.64.64,0,0,0,.28.25,1.22,1.22,0,0,0,.37.07v.39H71.39l-3.73-5h0v3.13a1.75,1.75,0,0,0,.28,1.14,1.72,1.72,0,0,0,1.13.32v.41H63.65Zm6.25-5.55c.45-.28.68-.92.68-1.93a3.49,3.49,0,0,0-.26-1.47,1.65,1.65,0,0,0-1.63-.92,1.57,1.57,0,0,0-.84.16.66.66,0,0,0-.2.53v4.07A4.54,4.54,0,0,0,69.9,97.14Z"/><path d="M83.89,93.61a6,6,0,0,1,0,8.25,6,6,0,0,1-8.2-.15,5.48,5.48,0,0,1-1.51-3.89,5.7,5.7,0,0,1,1.58-4.14,6,6,0,0,1,8.13-.07Zm-1.55,7.14a10.42,10.42,0,0,0,.36-3,7.71,7.71,0,0,0-.77-3.85,2.32,2.32,0,0,0-2.07-1.3c-1.21,0-2,.72-2.48,2.17a10.17,10.17,0,0,0-.36,3,10.38,10.38,0,0,0,.36,3c.45,1.42,1.27,2.13,2.48,2.13A2.56,2.56,0,0,0,82.34,100.75Z"/><path d="M85.4,102.69a1.52,1.52,0,0,0,1.15-.34,1.45,1.45,0,0,0,.26-.93V93.84a10.83,10.83,0,0,0-.91-1,.88.88,0,0,0-.47-.19v-.4h3.39L94.32,99h.08v-4.7a1.84,1.84,0,0,0-.29-1.16,1.74,1.74,0,0,0-1.18-.42v-.4h3.43v.4a2.22,2.22,0,0,0-1,.34c-.17.14-.25.45-.25.93v9.43h-.45l-7-8.55h-.11v6.27a2.06,2.06,0,0,0,.2,1,1.55,1.55,0,0,0,1.32.53v.41H85.4Z"/><path d="M102.8,102.69a2.4,2.4,0,0,0,1-.16,1,1,0,0,0,.49-1V93.82a1,1,0,0,0-.46-.95,2.57,2.57,0,0,0-1-.18v-.4h5.59v.4a2.93,2.93,0,0,0-1,.17,1,1,0,0,0-.47,1v7.75a1,1,0,0,0,.38.89,2.1,2.1,0,0,0,1.12.23v.41H102.8Z"/><path d="M108.51,102.69a1.53,1.53,0,0,0,1.15-.34,1.45,1.45,0,0,0,.26-.93V93.84c-.5-.55-.8-.87-.91-1a.92.92,0,0,0-.47-.19v-.4h3.39l5.5,6.68h.08v-4.7a1.77,1.77,0,0,0-.3-1.16,1.72,1.72,0,0,0-1.18-.42v-.4h3.44v.4a2.17,2.17,0,0,0-1,.34,1.21,1.21,0,0,0-.26.93v9.43h-.44l-7-8.55h-.11v6.27a2.06,2.06,0,0,0,.2,1,1.51,1.51,0,0,0,1.31.53v.41h-3.62Z"/><path d="M119.56,102.69a1.51,1.51,0,0,0,1.14-.34,1.39,1.39,0,0,0,.26-.93V93.84q-.73-.82-.9-1a.92.92,0,0,0-.47-.19v-.4H123l5.5,6.68h.08v-4.7a1.77,1.77,0,0,0-.3-1.16,1.74,1.74,0,0,0-1.18-.42v-.4h3.44v.4a2.27,2.27,0,0,0-1,.34c-.17.14-.25.45-.25.93v9.43h-.45l-7-8.55h-.1v6.27a2,2,0,0,0,.2,1,1.51,1.51,0,0,0,1.31.53v.41h-3.62Z"/><path d="M140.11,93.61a6,6,0,0,1,0,8.25,5.58,5.58,0,0,1-4,1.56,5.5,5.5,0,0,1-5.69-5.6A5.7,5.7,0,0,1,132,93.68a6,6,0,0,1,8.14-.07Zm-1.56,7.14a10.42,10.42,0,0,0,.36-3,7.72,7.72,0,0,0-.76-3.85,2.32,2.32,0,0,0-2.07-1.3c-1.21,0-2,.72-2.49,2.17a10.57,10.57,0,0,0-.35,3,10.38,10.38,0,0,0,.36,3,2.54,2.54,0,0,0,2.48,2.13C137.28,102.88,138.1,102.17,138.55,100.75Z"/><path d="M146.19,92.29v.39a4.88,4.88,0,0,0-1.11.14.47.47,0,0,0-.26.49,1.64,1.64,0,0,0,0,.23,1.27,1.27,0,0,0,.08.23l2.53,5.92h0l2.1-5.42.12-.36a2,2,0,0,0,.1-.5q0-.45-.27-.57a4.19,4.19,0,0,0-1.1-.16v-.39h3.4v.39a1.39,1.39,0,0,0-.87.34,2.54,2.54,0,0,0-.57,1l-3.65,9.4h-.42l-4.12-9.58a2.71,2.71,0,0,0-.51-.83,1.31,1.31,0,0,0-.82-.3v-.39Z"/><path d="M149.82,102.69a1.18,1.18,0,0,0,.93-.52,7.37,7.37,0,0,0,.65-1.35L155,92.07h.44l3.57,8.4a11.19,11.19,0,0,0,.9,1.83,1,1,0,0,0,.84.39v.41h-5.18v-.41a3.57,3.57,0,0,0,1-.13c.17-.07.25-.24.25-.52a1.94,1.94,0,0,0-.13-.57q-.08-.23-.21-.54l-.41-1h-3.59L152,101.2a3.18,3.18,0,0,0-.21.9c0,.23.15.39.46.5a2.76,2.76,0,0,0,.82.09v.41h-3.27Zm6-3.37-1.54-3.7h-.13l-1.45,3.7Z"/><path d="M159.92,92.29h9.63l0,3.22h-.46a3,3,0,0,0-1.3-2.34,3.91,3.91,0,0,0-1.8-.37v8.43a1.59,1.59,0,0,0,.31,1.17,2,2,0,0,0,1.29.29v.41H161.9v-.41a1.93,1.93,0,0,0,1.25-.29,1.67,1.67,0,0,0,.31-1.17V92.8a4,4,0,0,0-1.8.37,2.71,2.71,0,0,0-1.3,2.34h-.46Z"/><path d="M169.79,102.69a2.46,2.46,0,0,0,1-.16,1,1,0,0,0,.48-1V93.82a1,1,0,0,0-.46-.95,2.57,2.57,0,0,0-1-.18v-.4h5.6v.4a3,3,0,0,0-1,.17,1,1,0,0,0-.46,1v7.75a1,1,0,0,0,.37.89,2.14,2.14,0,0,0,1.13.23v.41h-5.6Z"/><path d="M184.93,93.61a6,6,0,0,1,0,8.25,6,6,0,0,1-8.2-.15,5.48,5.48,0,0,1-1.51-3.89,5.7,5.7,0,0,1,1.58-4.14,6,6,0,0,1,8.13-.07Zm-1.55,7.14a10.42,10.42,0,0,0,.36-3,7.71,7.71,0,0,0-.77-3.85,2.3,2.3,0,0,0-2.07-1.3c-1.21,0-2,.72-2.48,2.17a10.17,10.17,0,0,0-.36,3,10.38,10.38,0,0,0,.36,3c.45,1.42,1.27,2.13,2.48,2.13A2.56,2.56,0,0,0,183.38,100.75Z"/><path d="M186.44,102.69a1.52,1.52,0,0,0,1.15-.34,1.45,1.45,0,0,0,.26-.93V93.84a10.83,10.83,0,0,0-.91-1,.88.88,0,0,0-.47-.19v-.4h3.4l5.5,6.68h.07v-4.7a1.84,1.84,0,0,0-.29-1.16,1.74,1.74,0,0,0-1.18-.42v-.4h3.43v.4a2.22,2.22,0,0,0-1,.34c-.17.14-.25.45-.25.93v9.43h-.45l-7-8.55h-.11v6.27a1.94,1.94,0,0,0,.21,1,1.51,1.51,0,0,0,1.31.53v.41h-3.63Z"/><path d="M197.56,99.36H198a4.9,4.9,0,0,0,1.23,2.61,2.77,2.77,0,0,0,2,.82,1.86,1.86,0,0,0,1.52-.56,1.88,1.88,0,0,0,.45-1.18,1.56,1.56,0,0,0-.47-1.17,5.9,5.9,0,0,0-1.26-.78l-1-.51a6.82,6.82,0,0,1-2.14-1.52,2.78,2.78,0,0,1-.62-1.85,3.41,3.41,0,0,1,.82-2.19A3.07,3.07,0,0,1,201,92a5.28,5.28,0,0,1,1.68.27,6.68,6.68,0,0,0,.93.26.41.41,0,0,0,.36-.15,1.15,1.15,0,0,0,.16-.4h.48v3.48h-.45a4.86,4.86,0,0,0-1.1-2.08,2.48,2.48,0,0,0-1.92-.88,1.77,1.77,0,0,0-1.26.44,1.44,1.44,0,0,0-.46,1.08,1.41,1.41,0,0,0,.43,1.13,10.33,10.33,0,0,0,1.91,1.13l1.18.59a4.67,4.67,0,0,1,1.26.89,3,3,0,0,1,.88,2.2,3.41,3.41,0,0,1-.95,2.28,3.78,3.78,0,0,1-3,1.07,5.39,5.39,0,0,1-1-.09,5.75,5.75,0,0,1-1-.27l-.31-.12-.21,0-.16,0a.38.38,0,0,0-.34.14,1.21,1.21,0,0,0-.16.41h-.47Z"/><rect x="7.12" y="77.9" width="198" height="7.2" fill="#bb063d"/><path d="M110.4,70.7h-34l-21-40.36V70.7H7.12V7.7H78.83L93.36,35.6,107.88,7.7h62.76a25.2,25.2,0,0,0,34.48,36.46V70.7H131.41V30.34l-21,40.36"/><circle cx="189.58" cy="24.31" r="18" fill="url(#a)"/></svg>