<svg xmlns="http://www.w3.org/2000/svg" xmlns:xlink="http://www.w3.org/1999/xlink" width="212.62" height="109.63" viewBox="0 0 212.62 109.63"><defs><radialGradient id="a" cx="189.85" cy="23.6" r="18" gradientUnits="userSpaceOnUse"><stop offset="0" stop-color="#ffdedd"/><stop offset="0.03" stop-color="#fcd5d7"/><stop offset="0.23" stop-color="#e997a8"/><stop offset="0.42" stop-color="#d86382"/><stop offset="0.6" stop-color="#cc3b64"/><stop offset="0.76" stop-color="#c31e4f"/><stop offset="0.9" stop-color="#bd0c42"/><stop offset="1" stop-color="#bb063d"/></radialGradient></defs><title>mechtron_logo</title><rect x="7.39" y="77.18" width="198" height="7.2" fill="#bb063d"/><circle cx="189.85" cy="23.6" r="18" fill="url(#a)"/><path d="M110.67,70h-34l-21-40.36V70H7.39V7H79.1l14.52,27.9L108.15,7H170.9a25.2,25.2,0,0,0,34.49,36.46V70H131.68V29.62L110.67,70"/><path d="M7.17,101.64a1.83,1.83,0,0,0,1.26-.45,2.82,2.82,0,0,0,.28-1.59V93.16A1.62,1.62,0,0,0,8.44,92a2.1,2.1,0,0,0-1.23-.3v-.3h3.13L14,99.34l3.55-7.9h3.15v.3a1.82,1.82,0,0,0-1.13.32,1.64,1.64,0,0,0-.26,1.1v7a1.61,1.61,0,0,0,.26,1.11,2,2,0,0,0,1.13.32v.29H16.25v-.29a2,2,0,0,0,1.19-.34,2.18,2.18,0,0,0,.24-1.28V92.9l-4.06,9H13.4l-4-8.65V99.6a2.6,2.6,0,0,0,.38,1.69,1.89,1.89,0,0,0,1.11.35v.29H7.17Z"/><path d="M21.75,101.64a2.36,2.36,0,0,0,1.13-.31c.18-.15.26-.52.26-1.11V93.16a1.65,1.65,0,0,0-.25-1.1,1.83,1.83,0,0,0-1.14-.32v-.3h7.43l.06,2.27h-.41a2.24,2.24,0,0,0-.6-1.36c-.27-.2.12-.3-.81-.3H25.27c-.24,0-.38,0-.44.11a.78.78,0,0,0-.08.42v3.54h1.46a1.84,1.84,0,0,0,1.29-.3A2.53,2.53,0,0,0,28,94.6h.37v3.66H28A2.62,2.62,0,0,0,27.49,97a1.9,1.9,0,0,0-1.28-.29H24.75v3.92c0,.32.1.5.3.56a10,10,0,0,0,1.79.08,1.81,1.81,0,0,0,1.39-.35,3.21,3.21,0,0,0,1.38-1.71h.44l-.72,2.68H21.75Z"/><path d="M38.26,91.51a9.4,9.4,0,0,0,1.47.24L40,94.46l-.5.12a4.08,4.08,0,0,0-.54-1.52,2.52,2.52,0,0,0-2.28-1.18,3.32,3.32,0,0,0-2.72,1.32,5.61,5.61,0,0,0-1.06,3.62A4.94,4.94,0,0,0,34,100.21a3.57,3.57,0,0,0,2.82,1.27,4.55,4.55,0,0,0,2.27-.59c.39-.22.18-1,.66-1.44l.29.3c-.35.44-.14,1.26-.66,1.6a5.33,5.33,0,0,1-2.89.85,5.23,5.23,0,0,1-4.05-1.64A5.32,5.32,0,0,1,31,96.79a5.53,5.53,0,0,1,1.46-3.89,5.28,5.28,0,0,1,4-1.64A6.46,6.46,0,0,1,38.26,91.51Z"/><path d="M40.63,101.64a2.19,2.19,0,0,0,1.16-.34A2.2,2.2,0,0,0,42,100V93.16a1.65,1.65,0,0,0-.26-1.11,1.9,1.9,0,0,0-1.13-.31v-.3H45v.3a1.93,1.93,0,0,0-1.13.31,1.65,1.65,0,0,0-.26,1.11v3.09h4.82V93.16a1.65,1.65,0,0,0-.26-1.11,1.91,1.91,0,0,0-1.14-.31v-.3h4.4v.3a1.9,1.9,0,0,0-1.13.31,1.6,1.6,0,0,0-.26,1.11v7.06c0,.57.08.94.26,1.1a2,2,0,0,0,1.13.32v.29h-4.4v-.29a2,2,0,0,0,1.17-.34,2.18,2.18,0,0,0,.23-1.27V97H43.63v3.27a1.6,1.6,0,0,0,.26,1.1,2,2,0,0,0,1.13.32v.29H40.63Z"/><path d="M53.27,91.44h9l.09,2.7h-.38a3.27,3.27,0,0,0-.71-1.66,3,3,0,0,0-1.81-.38h-.88v8.12c0,.61.1,1,.29,1.13a2.64,2.64,0,0,0,1.25.29v.29H55.46v-.29a2.15,2.15,0,0,0,1.25-.33A2,2,0,0,0,57,100V92.1h-.89a3,3,0,0,0-1.79.38,2.76,2.76,0,0,0-.72,1.66h-.39Z"/><path d="M63.58,101.64a1.83,1.83,0,0,0,1.14-.35A2.23,2.23,0,0,0,65,100V93.16a1.66,1.66,0,0,0-.26-1.1,1.79,1.79,0,0,0-1.11-.32v-.3H68a6.53,6.53,0,0,1,2.29.35A2.42,2.42,0,0,1,72,94.21,2.21,2.21,0,0,1,71.22,96a4.2,4.2,0,0,1-2.09.83l3.27,4a2.44,2.44,0,0,0,.6.54,2,2,0,0,0,.77.21v.29H71.22l-4-4.88-.69,0v3.12a1.63,1.63,0,0,0,.26,1.12,2.3,2.3,0,0,0,1.17.31v.29H63.58ZM69,96.14a1.93,1.93,0,0,0,1.27-2,1.86,1.86,0,0,0-1.13-1.87,4,4,0,0,0-1.61-.27,2.12,2.12,0,0,0-.82.09.53.53,0,0,0-.15.45V96.5A7.78,7.78,0,0,0,69,96.14Z"/><path d="M76.26,92.62a5.33,5.33,0,0,1,7.21,0,5.38,5.38,0,0,1,1.58,4.06,5.33,5.33,0,0,1-1.64,4.11,5.06,5.06,0,0,1-3.55,1.36,4.93,4.93,0,0,1-3.7-1.51,5.45,5.45,0,0,1-1.5-4A5.36,5.36,0,0,1,76.26,92.62Zm1.18,7.77a3,3,0,0,0,4.82,0,5.66,5.66,0,0,0,1-3.73,5.66,5.66,0,0,0-1-3.75,3.07,3.07,0,0,0-2.39-1.15A3,3,0,0,0,77.45,93a5.72,5.72,0,0,0-1,3.7A5.8,5.8,0,0,0,77.44,100.39Z"/><path d="M85.92,101.64a1.88,1.88,0,0,0,1.26-.45,2.92,2.92,0,0,0,.28-1.59v-7l-.22-.25a1.64,1.64,0,0,0-.59-.51,2.15,2.15,0,0,0-.73-.11v-.3h2.7L94.74,99V93.76a2.52,2.52,0,0,0-.38-1.69,2,2,0,0,0-1.13-.33v-.3H97v.3a1.81,1.81,0,0,0-1.21.44,2.72,2.72,0,0,0-.3,1.59v8.35h-.27l-7-8.7V99.6a2.6,2.6,0,0,0,.38,1.69,2,2,0,0,0,1.11.35v.29H85.92Z"/><path d="M103.79,101.64a2.6,2.6,0,0,0,1.25-.29c.2-.15.29-.52.29-1.13V93.16A1.52,1.52,0,0,0,105,92a2.29,2.29,0,0,0-1.25-.29v-.3h4.69v.3a2.31,2.31,0,0,0-1.25.29,1.57,1.57,0,0,0-.29,1.13v7.06c0,.61.1,1,.29,1.13a2.64,2.64,0,0,0,1.25.29v.29h-4.69Z"/><path d="M109,101.64a1.88,1.88,0,0,0,1.27-.45,2.94,2.94,0,0,0,.27-1.59v-7l-.21-.25a1.64,1.64,0,0,0-.59-.51,2.22,2.22,0,0,0-.74-.11v-.3h2.71L117.79,99V93.76a2.51,2.51,0,0,0-.39-1.69,1.92,1.92,0,0,0-1.13-.33v-.3H120v.3a1.79,1.79,0,0,0-1.21.44,2.72,2.72,0,0,0-.3,1.59v8.35h-.27l-7-8.7V99.6a2.6,2.6,0,0,0,.38,1.69,1.92,1.92,0,0,0,1.11.35v.29H109Z"/><path d="M120.38,101.64a1.88,1.88,0,0,0,1.27-.45,2.92,2.92,0,0,0,.28-1.59v-7l-.22-.25a1.64,1.64,0,0,0-.59-.51,2.22,2.22,0,0,0-.74-.11v-.3h2.71L129.21,99V93.76a2.58,2.58,0,0,0-.38-1.69,2,2,0,0,0-1.14-.33v-.3h3.73v.3a1.81,1.81,0,0,0-1.21.44,2.72,2.72,0,0,0-.3,1.59v8.35h-.27l-7-8.7V99.6a2.6,2.6,0,0,0,.38,1.69,2,2,0,0,0,1.11.35v.29h-3.73Z"/><path d="M133.25,92.62a5.33,5.33,0,0,1,7.21,0,6,6,0,0,1-.05,8.17,5.09,5.09,0,0,1-3.56,1.36,5,5,0,0,1-3.7-1.51,6,6,0,0,1,.1-8Zm1.19,7.77a3,3,0,0,0,2.42,1.2,3.07,3.07,0,0,0,2.4-1.17,5.72,5.72,0,0,0,1-3.73,5.61,5.61,0,0,0-1-3.75,3,3,0,0,0-4.8,0,7.41,7.41,0,0,0,0,7.4Z"/><path d="M146.57,91.44v.27a3.33,3.33,0,0,0-.81.08.51.51,0,0,0-.38.51,1.69,1.69,0,0,0,.14.55c.09.24.26.63.5,1.18l2.49,5.52,2.25-6c.1-.26.17-.49.23-.67a1.71,1.71,0,0,0,.07-.45.62.62,0,0,0-.39-.63,2.52,2.52,0,0,0-.77-.11v-.27h3.25v.27a1.55,1.55,0,0,0-.75.27,3.14,3.14,0,0,0-.72,1.22l-3.51,8.92h-.24L144,93.4a4.79,4.79,0,0,0-.79-1.38,1.43,1.43,0,0,0-.87-.31v-.27Z"/><path d="M150.58,101.93v-.29a1.3,1.3,0,0,0,.92-.46A13.15,13.15,0,0,0,152.55,99l3.3-7.78h.32l4,9a3.68,3.68,0,0,0,.63,1.1,1.5,1.5,0,0,0,.79.29v.29h-4v-.29a3.6,3.6,0,0,0,.9-.15c.13-.06.2-.2.2-.44a2.06,2.06,0,0,0-.08-.4,3.57,3.57,0,0,0-.22-.62l-.63-1.53H153.5c-.41,1-.66,1.67-.74,1.9a1.77,1.77,0,0,0-.12.55.56.56,0,0,0,.33.55,2.52,2.52,0,0,0,.75.14v.29Zm6.83-4.07-1.82-4.37-1.82,4.37Z"/><path d="M160.16,91.44h9l.08,2.7h-.38a3.19,3.19,0,0,0-.71-1.66,2.93,2.93,0,0,0-1.8-.38h-.89v8.12c0,.61.1,1,.29,1.13a2.64,2.64,0,0,0,1.25.29v.29h-4.62v-.29a2.22,2.22,0,0,0,1.26-.33,2.14,2.14,0,0,0,.24-1.28V92.1H163a3,3,0,0,0-1.79.38,2.76,2.76,0,0,0-.72,1.66h-.38Z"/><path d="M170.24,101.64a2.64,2.64,0,0,0,1.25-.29c.19-.15.29-.52.29-1.13V93.16a1.57,1.57,0,0,0-.29-1.13,2.31,2.31,0,0,0-1.25-.29v-.3h4.69v.3a2.29,2.29,0,0,0-1.25.29,1.52,1.52,0,0,0-.29,1.13v7.06c0,.61.09,1,.29,1.13a2.6,2.6,0,0,0,1.25.29v.29h-4.69Z"/><path d="M177.76,92.62a5.33,5.33,0,0,1,7.21,0,6,6,0,0,1-.06,8.17,5.06,5.06,0,0,1-3.55,1.36,4.93,4.93,0,0,1-3.7-1.51,5.45,5.45,0,0,1-1.5-4A5.36,5.36,0,0,1,177.76,92.62Zm1.18,7.77a3,3,0,0,0,4.82,0,5.66,5.66,0,0,0,1-3.73,5.66,5.66,0,0,0-1-3.75,3.07,3.07,0,0,0-2.39-1.15A3,3,0,0,0,179,93a5.72,5.72,0,0,0-1,3.7A5.8,5.8,0,0,0,178.94,100.39Z"/><path d="M187.1,101.64a1.83,1.83,0,0,0,1.26-.45,2.82,2.82,0,0,0,.28-1.59v-7l-.22-.25a1.64,1.64,0,0,0-.59-.51,2.11,2.11,0,0,0-.73-.11v-.3h2.71L195.93,99V93.76a2.51,2.51,0,0,0-.39-1.69,2,2,0,0,0-1.13-.33v-.3h3.73v.3a1.79,1.79,0,0,0-1.21.44,2.72,2.72,0,0,0-.3,1.59v8.35h-.28l-7-8.7V99.6a2.54,2.54,0,0,0,.38,1.69,1.88,1.88,0,0,0,1.1.35v.29H187.1Z"/><path d="M198.76,98.74a5.81,5.81,0,0,0,1,1.71,2.94,2.94,0,0,0,2.34,1.1,1.9,1.9,0,0,0,1.31-.48,1.66,1.66,0,0,0,.55-1.33,1.87,1.87,0,0,0-.55-1.35,9.8,9.8,0,0,0-1.53-1.09l-1.36-.85a5.14,5.14,0,0,1-1-.78,2.41,2.41,0,0,1-.67-1.66,2.73,2.73,0,0,1,.79-2,2.87,2.87,0,0,1,2.12-.79,4.25,4.25,0,0,1,1.3.26,5.66,5.66,0,0,0,.87.27.5.5,0,0,0,.41-.14,1,1,0,0,0,.17-.39h.33l.35,3.37h-.38a3.62,3.62,0,0,0-1.24-2.13,3,3,0,0,0-1.7-.6,1.79,1.79,0,0,0-1.13.38,1.3,1.3,0,0,0-.49,1.07,1.53,1.53,0,0,0,.38,1,4.51,4.51,0,0,0,1.15.92l1.39.86A7.43,7.43,0,0,1,205,97.61a2.57,2.57,0,0,1,.52,1.61,2.67,2.67,0,0,1-.94,2.09,3.5,3.5,0,0,1-2.4.83,4.61,4.61,0,0,1-1.54-.28,5.72,5.72,0,0,0-.92-.27.37.37,0,0,0-.37.17.92.92,0,0,0-.13.36h-.35l-.47-3.38Z"/></svg>